<svg width="48" height="47" viewBox="0 0 48 47" fill="none" xmlns="http://www.w3.org/2000/svg">
<path d="M24 1C11.5733 1 1.5 11.0733 1.5 23.5C1.5 35.9267 11.5733 46 24 46C36.4267 46 46.5 35.9267 46.5 23.5C46.5 11.0733 36.4267 1 24 1Z" stroke="#8783E7" stroke-width="1.5" stroke-linecap="round" stroke-linejoin="round"/>
<path d="M14.9985 44.128V28L23.9985 12.25L32.9985 28V44.128" stroke="#8783E7" stroke-width="1.5" stroke-linecap="round" stroke-linejoin="round"/>
<path d="M14.9985 28.0007C14.9985 28.0007 17.5343 30.2507 19.4985 30.2507C21.4628 30.2507 23.9985 28.0007 23.9985 28.0007C23.9985 28.0007 26.5343 30.2507 28.4985 30.2507C30.4628 30.2507 32.9985 28.0007 32.9985 28.0007" stroke="#8783E7" stroke-width="1.5" stroke-linecap="round" stroke-linejoin="round"/>
</svg>
