<svg width="46" height="45" viewBox="0 0 46 45" fill="none" xmlns="http://www.w3.org/2000/svg">
<path fill-rule="evenodd" clip-rule="evenodd" d="M41.75 2.5H4.25C3.91848 2.5 3.60054 2.6317 3.36612 2.86612C3.1317 3.10054 3 3.41848 3 3.75V41.25C3 41.5815 3.1317 41.8995 3.36612 42.1339C3.60054 42.3683 3.91848 42.5 4.25 42.5H41.75C42.0815 42.5 42.3995 42.3683 42.6339 42.1339C42.8683 41.8995 43 41.5815 43 41.25V3.75C43 3.41848 42.8683 3.10054 42.6339 2.86612C42.3995 2.6317 42.0815 2.5 41.75 2.5ZM4.25 0C3.25544 0 2.30161 0.395088 1.59835 1.09835C0.895088 1.80161 0.5 2.75544 0.5 3.75V41.25C0.5 42.2446 0.895088 43.1984 1.59835 43.9016C2.30161 44.6049 3.25544 45 4.25 45H41.75C42.7446 45 43.6984 44.6049 44.4016 43.9016C45.1049 43.1984 45.5 42.2446 45.5 41.25V3.75C45.5 2.75544 45.1049 1.80161 44.4016 1.09835C43.6984 0.395088 42.7446 0 41.75 0H4.25Z" fill="#79EBB0"/>
<path d="M16.7496 17.5004C16.7496 18.495 16.3545 19.4488 15.6513 20.1521C14.948 20.8553 13.9942 21.2504 12.9996 21.2504C12.005 21.2504 11.0512 20.8553 10.348 20.1521C9.64469 19.4488 9.2496 18.495 9.2496 17.5004C9.2496 16.5059 9.64469 15.552 10.348 14.8488C11.0512 14.1455 12.005 13.7504 12.9996 13.7504C13.9942 13.7504 14.948 14.1455 15.6513 14.8488C16.3545 15.552 16.7496 16.5059 16.7496 17.5004Z" fill="#79EBB0"/>
<path fill-rule="evenodd" clip-rule="evenodd" d="M8.3208 26.55C8.0583 26.8137 8.0008 27.0112 8.0008 27.1587V31.25H5.5008V27.1587C5.5008 26.1737 5.9633 25.3775 6.54705 24.7887C7.1208 24.2125 7.85955 23.78 8.5933 23.4588C10.0533 22.8213 11.7858 22.5 13.0008 22.5C14.2145 22.5 15.9483 22.8213 17.4083 23.4588C18.142 23.78 18.8808 24.2125 19.4545 24.7887C20.0395 25.3775 20.5008 26.1737 20.5008 27.1587V31.25H18.0008V27.1587C18.0008 27.0112 17.942 26.8137 17.6808 26.5512C17.4083 26.2762 16.9758 25.9988 16.407 25.75C15.2645 25.25 13.872 25 13.0008 25C12.1295 25 10.7383 25.25 9.59455 25.75C9.0258 25.9975 8.59455 26.275 8.3208 26.55V26.55Z" fill="#79EBB0"/>
<path fill-rule="evenodd" clip-rule="evenodd" d="M28.3204 26.55C28.0579 26.8137 28.0004 27.0112 28.0004 27.1587V31.25H25.5004V27.1587C25.5004 26.1737 25.9629 25.3775 26.5466 24.7887C27.1204 24.2125 27.8591 23.78 28.5929 23.4588C30.0529 22.8213 31.7866 22.5 33.0004 22.5C34.2141 22.5 35.9479 22.8213 37.4079 23.4588C38.1416 23.78 38.8804 24.2125 39.4541 24.7887C40.0391 25.3775 40.5004 26.1737 40.5004 27.1587V31.25H38.0004V27.1587C38.0004 27.0112 37.9416 26.8137 37.6804 26.5512C37.4079 26.2762 36.9754 25.9988 36.4066 25.75C35.2641 25.25 33.8716 25 33.0004 25C32.1291 25 30.7379 25.25 29.5941 25.75C29.0254 25.9975 28.5941 26.275 28.3204 26.55V26.55Z" fill="#79EBB0"/>
<path d="M36.7492 17.5004C36.7492 18.495 36.3541 19.4488 35.6509 20.1521C34.9476 20.8553 33.9938 21.2504 32.9992 21.2504C32.0046 21.2504 31.0508 20.8553 30.3476 20.1521C29.6443 19.4488 29.2492 18.495 29.2492 17.5004C29.2492 16.5059 29.6443 15.552 30.3476 14.8488C31.0508 14.1455 32.0046 13.7504 32.9992 13.7504C33.9938 13.7504 34.9476 14.1455 35.6509 14.8488C36.3541 15.552 36.7492 16.5059 36.7492 17.5004Z" fill="#79EBB0"/>
<path d="M26.7494 15C26.7494 15.9946 26.3543 16.9484 25.6511 17.6517C24.9478 18.3549 23.994 18.75 22.9994 18.75C22.0048 18.75 21.051 18.3549 20.3478 17.6517C19.6445 16.9484 19.2494 15.9946 19.2494 15C19.2494 14.0054 19.6445 13.0516 20.3478 12.3483C21.051 11.6451 22.0048 11.25 22.9994 11.25C23.994 11.25 24.9478 11.6451 25.6511 12.3483C26.3543 13.0516 26.7494 14.0054 26.7494 15Z" fill="#79EBB0"/>
<path fill-rule="evenodd" clip-rule="evenodd" d="M21.3714 23.7442C21.0177 23.7792 20.8964 23.8592 20.8077 23.958L18.9427 22.293C19.5989 21.558 20.4177 21.3255 21.1277 21.2555C21.5577 21.2142 22.0902 21.2292 22.5277 21.2405C22.7052 21.2455 22.8677 21.2505 23.0002 21.2505C23.1327 21.2505 23.2952 21.2455 23.4739 21.2405C23.9102 21.228 24.4427 21.2155 24.8714 21.2567C25.5839 21.3255 26.4014 21.558 27.0577 22.293L25.1927 23.958C25.1052 23.8592 24.9827 23.7792 24.6289 23.7455C24.3986 23.7271 24.1674 23.7221 23.9364 23.7305L23.6839 23.7367C23.4714 23.743 23.2302 23.7505 23.0002 23.7505C22.7702 23.7505 22.5289 23.743 22.3164 23.738L22.0639 23.7305C21.833 23.7216 21.6018 23.7262 21.3714 23.7442Z" fill="#79EBB0"/>
</svg>
