<svg width="42" height="45" viewBox="0 0 42 45" fill="none" xmlns="http://www.w3.org/2000/svg">
<path d="M20.9541 12.2725C22.0838 12.2725 22.9995 11.3567 22.9995 10.2271C22.9995 9.0974 22.0838 8.18164 20.9541 8.18164C19.8245 8.18164 18.9087 9.0974 18.9087 10.2271C18.9087 11.3567 19.8245 12.2725 20.9541 12.2725Z" fill="#8E83DD"/>
<path d="M8.68164 32.7266H33.2266V36.8174H8.68164V32.7266Z" fill="#8E83DD"/>
<path d="M16.8633 22.1518L22.5741 27.8667L30.6166 19.818L33.2266 22.4995V14.3179H25.0449L27.7244 16.9258L22.572 22.0782L16.8633 16.3633L8.68164 24.5449L11.5739 27.4371L16.8633 22.1518Z" fill="#8E83DD"/>
<path d="M35.272 4.0918H28.5262C28.3254 3.78937 28.1068 3.49909 27.8717 3.2225L27.8512 3.19795C26.3484 1.4476 24.234 0.337005 21.94 0.0930206C21.2886 -0.0310069 20.6196 -0.0310069 19.9682 0.0930206C17.6742 0.337005 15.5598 1.4476 14.057 3.19795L14.0365 3.2225C13.8014 3.49843 13.5829 3.78802 13.382 4.08975V4.0918H6.63623C5.0093 4.09342 3.44947 4.74044 2.29905 5.89085C1.14864 7.04127 0.501624 8.6011 0.5 10.228V38.8638C0.501624 40.4907 1.14864 42.0505 2.29905 43.2009C3.44947 44.3514 5.0093 44.9984 6.63623 45H35.272C36.8989 44.9984 38.4587 44.3514 39.6091 43.2009C40.7596 42.0505 41.4066 40.4907 41.4082 38.8638V10.228C41.4066 8.6011 40.7596 7.04127 39.6091 5.89085C38.4587 4.74044 36.8989 4.09342 35.272 4.0918V4.0918ZM37.3174 38.8638C37.3174 39.4062 37.1019 39.9265 36.7183 40.3101C36.3347 40.6937 35.8144 40.9092 35.272 40.9092H6.63623C6.09392 40.9086 5.57398 40.693 5.19051 40.3095C4.80703 39.926 4.59136 39.4061 4.59082 38.8638V10.228C4.59136 9.68572 4.80703 9.16577 5.19051 8.7823C5.57398 8.39883 6.09392 8.18316 6.63623 8.18262H15.9428C16.1776 7.02667 16.8047 5.98741 17.718 5.24093C18.6313 4.49446 19.7746 4.08667 20.9541 4.08667C22.1336 4.08667 23.2769 4.49446 24.1902 5.24093C25.1035 5.98741 25.7306 7.02667 25.9654 8.18262H35.272C35.8143 8.18316 36.3342 8.39883 36.7177 8.7823C37.1012 9.16577 37.3168 9.68572 37.3174 10.228V38.8638Z" fill="#8E83DD"/>
</svg>
