<svg width="19" height="17" viewBox="0 0 19 17" fill="none" xmlns="http://www.w3.org/2000/svg">
<path d="M6.80481 3.8094H8.58315V11.9778C8.58315 12.084 8.66979 12.1709 8.77567 12.1709H10.2195C10.3254 12.1709 10.412 12.084 10.412 11.9778V3.8094H12.1952C12.3564 3.8094 12.4455 3.62348 12.3468 3.49792L9.6516 0.0741139C9.6336 0.0510266 9.61059 0.032355 9.58432 0.0195142C9.55805 0.00667334 9.52922 0 9.5 0C9.47078 0 9.44195 0.00667334 9.41568 0.0195142C9.38941 0.032355 9.3664 0.0510266 9.3484 0.0741139L6.65321 3.49551C6.55455 3.62348 6.64358 3.8094 6.80481 3.8094V3.8094ZM18.3075 11.2534H16.8636C16.7578 11.2534 16.6711 11.3403 16.6711 11.4466V15.165H2.32888V11.4466C2.32888 11.3403 2.24225 11.2534 2.13636 11.2534H0.692513C0.586631 11.2534 0.5 11.3403 0.5 11.4466V16.2273C0.5 16.6547 0.844118 17 1.27005 17H17.7299C18.1559 17 18.5 16.6547 18.5 16.2273V11.4466C18.5 11.3403 18.4134 11.2534 18.3075 11.2534Z" fill="#4540DB"/>
</svg>
