<svg width="24" height="24" viewBox="0 0 24 24" fill="none" xmlns="http://www.w3.org/2000/svg">
<path d="M3 22H21C21.2652 22 21.5196 21.8947 21.7071 21.7071C21.8946 21.5196 22 21.2652 22 21C22 20.7348 21.8946 20.4804 21.7071 20.2929C21.5196 20.1054 21.2652 20 21 20H13V18H20C20.2652 18 20.5196 17.8947 20.7071 17.7071C20.8946 17.5196 21 17.2652 21 17V4.00002C21 3.7348 20.8946 3.48045 20.7071 3.29291C20.5196 3.10537 20.2652 3.00002 20 3.00002H14C13.8684 2.99926 13.7379 3.02448 13.6161 3.07425C13.4943 3.12401 13.3834 3.19734 13.29 3.29002L11.59 5.00002H4C3.73478 5.00002 3.48043 5.10537 3.29289 5.29291C3.10536 5.48045 3 5.7348 3 6.00002V17C3 17.2652 3.10536 17.5196 3.29289 17.7071C3.48043 17.8947 3.73478 18 4 18H11V20H3C2.73478 20 2.48043 20.1054 2.29289 20.2929C2.10536 20.4804 2 20.7348 2 21C2 21.2652 2.10536 21.5196 2.29289 21.7071C2.48043 21.8947 2.73478 22 3 22ZM5 16V7.00002H12C12.1316 7.00078 12.2621 6.97555 12.3839 6.92579C12.5057 6.87602 12.6166 6.8027 12.71 6.71002L14.41 5.00002H19V16H5Z" fill="#303C6C"/>
</svg>
