<svg width="24" height="24" viewBox="0 0 24 24" fill="none" xmlns="http://www.w3.org/2000/svg">
<path fill-rule="evenodd" clip-rule="evenodd" d="M6.71945 5.66394V4.07994C6.71945 3.37981 6.99721 2.7082 7.49247 2.21399C7.98774 1.71873 8.65933 1.43994 9.35945 1.43994H14.6395C15.3396 1.43994 16.0101 1.71873 16.5054 2.21399C17.0007 2.7082 17.2795 3.37981 17.2795 4.07994V5.66394H19.9195C20.6196 5.66394 21.2901 5.94273 21.7854 6.43799C22.2807 6.9322 22.5595 7.60381 22.5595 8.30394V19.9199C22.5595 20.6201 22.2807 21.2917 21.7854 21.787C21.2901 22.2822 20.6196 22.5599 19.9195 22.5599C16.3396 22.5599 7.65929 22.5599 4.07945 22.5599C3.37933 22.5599 2.70774 22.2822 2.21247 21.787C1.71721 21.2917 1.43945 20.6201 1.43945 19.9199V8.30394C1.43945 7.60381 1.71721 6.9322 2.21247 6.43799C2.70774 5.94273 3.37933 5.66394 4.07945 5.66394H6.71945ZM3.55145 12.4097V19.9199C3.55145 20.0604 3.60636 20.1945 3.70563 20.2938C3.80489 20.393 3.93901 20.4479 4.07945 20.4479H19.9195C20.0588 20.4479 20.193 20.393 20.2922 20.2938C20.3915 20.1945 20.4475 20.0604 20.4475 19.9199V12.4836L12.3247 15.1173C12.1103 15.1859 11.8791 15.1859 11.6647 15.1141L3.55145 12.4097ZM20.4475 10.2628V8.30394C20.4475 8.16455 20.3915 8.03044 20.2922 7.93117C20.193 7.83191 20.0588 7.77594 19.9195 7.77594C16.3396 7.77594 7.65929 7.77594 4.07945 7.77594C3.93901 7.77594 3.80489 7.83191 3.70563 7.93117C3.60636 8.03044 3.55145 8.16455 3.55145 8.30394V10.1836L12.0037 13.001L20.4475 10.2628ZM15.1675 5.66394V4.07994C15.1675 3.94055 15.1115 3.80644 15.0122 3.70717C14.913 3.60791 14.7788 3.55194 14.6395 3.55194C13.1294 3.55194 10.8685 3.55194 9.35945 3.55194C9.21901 3.55194 9.08489 3.60791 8.98562 3.70717C8.88636 3.80644 8.83145 3.94055 8.83145 4.07994V5.66394H15.1675Z" fill="#303C6C"/>
</svg>
