<svg width="243" height="242" viewBox="0 0 243 242" fill="none" xmlns="http://www.w3.org/2000/svg">
<path d="M121.496 17C135.105 17 148.583 19.6876 161.158 24.9104C173.734 30.1333 185.164 37.7898 194.794 47.445C204.423 57.1003 212.065 68.5652 217.279 81.1863C222.493 93.8075 225.177 107.336 225.177 121C225.177 134.664 222.493 148.193 217.279 160.814C212.065 173.435 204.423 184.9 194.794 194.555C185.164 204.21 173.734 211.867 161.158 217.09C148.583 222.312 135.105 225 121.496 225C107.887 225 94.4097 222.312 81.8339 217.09C69.258 211.867 57.8283 204.21 48.1987 194.555C38.5689 184.9 30.9277 173.435 25.7137 160.814C20.4996 148.193 17.8154 134.664 17.8154 121C17.8154 107.336 20.4997 93.8074 25.7137 81.1862C30.9278 68.5651 38.5689 57.1002 48.1987 47.445C57.8284 37.7898 69.2581 30.1333 81.834 24.9104C94.4098 19.6876 107.887 17 121.496 17L121.496 17Z" stroke="#B4DFE5" stroke-width="34" stroke-linecap="round"/>
<path d="M121.496 17C137.628 17 153.54 20.7761 167.963 28.0297C182.388 35.2835 194.928 45.8156 204.583 58.791C214.239 71.7667 220.742 86.8265 223.572 102.772C226.402 118.718 225.48 135.106 220.88 150.631C216.28 166.155 208.129 180.385 197.081 192.187C186.033 203.99 172.393 213.04 157.249 218.621C142.105 224.202 125.872 226.16 109.842 224.341C93.8115 222.522 78.4235 216.975 64.9028 208.14" stroke="#FA976C" stroke-width="34" stroke-linecap="round"/>
<path d="M121.496 17C137.242 17 152.781 20.5972 166.937 27.5204C181.092 34.4437 193.492 44.5119 203.192 56.9639C212.893 69.4161 219.638 83.9239 222.913 99.3867C226.188 114.849 225.906 130.858 222.089 146.194" stroke="#303C6C" stroke-width="34" stroke-linecap="round"/>
<ellipse cx="219.224" cy="142" rx="8.97625" ry="9" fill="white"/>
<ellipse cx="60.6437" cy="208" rx="8.97625" ry="9" fill="white"/>
</svg>
