<svg width="36" height="36" viewBox="0 0 36 36" fill="none" xmlns="http://www.w3.org/2000/svg">
<g clip-path="url(#clip0_13_11)">
<path d="M18.0001 36C27.9412 36 36.0001 27.9411 36.0001 18C36.0001 8.05888 27.9412 0 18.0001 0C8.05894 0 6.10352e-05 8.05888 6.10352e-05 18C6.10352e-05 27.9411 8.05894 36 18.0001 36Z" fill="#3C5A9A"/>
<path d="M23.8529 5.52502H19.8654C17.4991 5.52502 14.8672 6.52025 14.8672 9.95027C14.8787 11.1454 14.8672 12.29 14.8672 13.5782H12.1297V17.9343H14.9519V30.4749H20.1378V17.8516H23.5606L23.8703 13.566H20.0484C20.0484 13.566 20.057 11.6596 20.0484 11.1059C20.0484 9.75047 21.4588 9.82809 21.5437 9.82809C22.2148 9.82809 23.5198 9.83005 23.8548 9.82809V5.52502H23.8529V5.52502Z" fill="white"/>
</g>
<defs>
<clipPath id="clip0_13_11">
<rect width="36" height="36" fill="white"/>
</clipPath>
</defs>
</svg>
