<svg width="36" height="36" viewBox="0 0 36 36" fill="none" xmlns="http://www.w3.org/2000/svg">
<path d="M14.0544 5.84648C10.9224 6.91928 8.2512 9.26648 6.768 12.2257C6.2496 13.2481 5.8752 14.3353 5.652 15.4585C5.0832 18.2521 5.4792 21.2257 6.768 23.7745C7.6032 25.4377 8.8056 26.9137 10.26 28.0657C11.6352 29.1601 13.2336 29.9665 14.9328 30.4201C17.0712 30.9961 19.3536 30.9817 21.5136 30.4921C23.4648 30.0457 25.308 29.1097 26.7768 27.7561C28.332 26.3233 29.4408 24.4441 30.0312 22.4209C30.672 20.2105 30.7584 17.8561 30.3552 15.5953C26.3232 15.5953 22.2912 15.5953 18.252 15.5953C18.252 17.2657 18.252 18.9433 18.252 20.6137C20.5848 20.6137 22.9248 20.6137 25.2576 20.6137C24.984 22.2193 24.0336 23.6809 22.68 24.5881C21.8304 25.1569 20.8584 25.5313 19.8504 25.7041C18.8352 25.8769 17.7912 25.8985 16.7832 25.6969C15.7536 25.4953 14.7744 25.0633 13.9176 24.4585C12.5496 23.5009 11.5056 22.0897 10.9728 20.5129C10.4256 18.9073 10.4184 17.1145 10.9728 15.5089C11.3544 14.3785 11.9952 13.3273 12.8376 12.4777C13.8744 11.4121 15.2208 10.6561 16.6752 10.3465C17.9208 10.0801 19.2312 10.1305 20.448 10.4977C21.4848 10.8145 22.4352 11.3761 23.22 12.1249C24.012 11.3401 24.7968 10.5481 25.5888 9.76328C25.9992 9.33848 26.4384 8.93528 26.8416 8.49608C25.6464 7.38728 24.2352 6.49448 22.7016 5.93288C19.9512 4.90328 16.8336 4.88168 14.0544 5.84648Z" fill="white"/>
<path d="M14.0544 5.84646C16.8336 4.88166 19.9512 4.90326 22.716 5.92566C24.2496 6.48726 25.6536 7.38006 26.856 8.48886C26.4528 8.92086 26.0208 9.33126 25.6032 9.75606C24.8112 10.5409 24.0264 11.3329 23.2344 12.1177C22.4496 11.3689 21.4992 10.8001 20.4624 10.4905C19.2456 10.1233 17.9352 10.0729 16.6896 10.3393C15.2352 10.6489 13.8888 11.4121 12.852 12.4705C12.0096 13.3201 11.3688 14.3713 10.9872 15.5017C9.58321 14.4145 8.17921 13.3201 6.77521 12.2329C8.25121 9.26646 10.9224 6.91926 14.0544 5.84646Z" fill="#E94435"/>
<path d="M5.652 15.4585C5.8752 14.3353 6.2568 13.2481 6.768 12.2257C8.172 13.3129 9.576 14.4073 10.98 15.4945C10.4256 17.1001 10.4328 18.8929 10.98 20.4985C9.576 21.5857 8.172 22.6801 6.768 23.7673C5.4792 21.2329 5.0832 18.2521 5.652 15.4585Z" fill="#F8BB15"/>
<path d="M18.2592 15.588C22.2912 15.588 26.3232 15.588 30.3624 15.588C30.7656 17.8488 30.6792 20.2032 30.0384 22.4136C29.448 24.4368 28.3392 26.3232 26.784 27.7488C25.4232 26.6904 24.0552 25.632 22.7016 24.5736C24.0552 23.6736 25.0056 22.2048 25.2792 20.5992C22.9464 20.5992 20.6064 20.5992 18.2736 20.5992C18.252 18.936 18.2592 17.2656 18.2592 15.588Z" fill="#547DBE"/>
<path d="M6.76801 23.7744C8.17201 22.6872 9.57601 21.5928 10.98 20.5056C11.5128 22.0896 12.5568 23.4936 13.9248 24.4512C14.7816 25.056 15.7608 25.4808 16.7904 25.6896C17.7984 25.8912 18.8496 25.8696 19.8576 25.6968C20.8656 25.524 21.8376 25.1496 22.6872 24.5808C24.048 25.6392 25.416 26.6976 26.7696 27.756C25.3008 29.1168 23.4576 30.0456 21.5064 30.492C19.3536 30.9816 17.0712 30.996 14.9256 30.42C13.2264 29.9664 11.628 29.16 10.2528 28.0656C8.8056 26.9064 7.60321 25.4304 6.76801 23.7744Z" fill="#34A751"/>
</svg>
